<svg version="1.1" xmlns="http://www.w3.org/2000/svg" xmlns:xlink="http://www.w3.org/1999/xlink" x="0px" y="0px" viewBox="0 0 1000 1000" enable-background="new 0 0 1000 1000" xml:space="preserve">
<g><path d="M47.7,10L47.7,10L47.7,10z"/><path fill="#c70101" d="M733.8,680.8l60.1-60.1c7.5-7.5,11.2-16.3,11.2-26.5c0-10.2-3.7-19-11.2-26.5L526.5,300.4c-7.5-7.5-16.3-11.2-26.5-11.2s-19,3.7-26.5,11.2L206.1,567.7c-7.5,7.5-11.2,16.3-11.2,26.5c0,10.2,3.7,19,11.2,26.5l60.1,60.1c7.5,7.5,16.3,11.2,26.5,11.2c10.2,0,19-3.7,26.5-11.2L500,500l180.8,180.8c7.5,7.5,16.3,11.2,26.5,11.2C717.5,692,726.4,688.3,733.8,680.8z M952.3,537.7c0,82.1-20.2,157.7-60.7,227S796.3,888.9,727,929.3c-69.3,40.4-145,60.7-227,60.7c-82.1,0-157.7-20.2-227-60.7c-69.3-40.5-124.2-95.3-164.6-164.6c-40.4-69.3-60.7-145-60.7-227c0-82.1,20.2-157.8,60.7-227C148.8,241.4,203.7,186.5,273,146c69.3-40.5,145-60.7,227-60.7c82.1,0,157.7,20.2,227,60.7c69.3,40.4,124.2,95.3,164.6,164.6C932.1,380,952.3,455.6,952.3,537.7z"/></g>
</svg>